<?xml version="1.0" encoding="UTF-8" standalone="no"?>
<!DOCTYPE svg PUBLIC "-//W3C//DTD SVG 1.1//EN" "http://www.w3.org/Graphics/SVG/1.1/DTD/svg11.dtd">
<!-- Created with Vectornator (http://vectornator.io/) -->
<svg height="100%" stroke-miterlimit="10" style="fill-rule:nonzero;clip-rule:evenodd;stroke-linecap:round;stroke-linejoin:round;" version="1.1" viewBox="30.3516 13.0801 37.5879 58.0021" width="100%" xml:space="preserve" xmlns="http://www.w3.org/2000/svg" xmlns:vectornator="http://vectornator.io" xmlns:xlink="http://www.w3.org/1999/xlink">
<defs/>
<g id="레이어-2" vectornator:layerName="레이어 2">
<path d="M35.4479 26.4094C35.4158 26.3934 35.3837 26.3773 35.3516 26.3613" fill="none" opacity="1" stroke="#491e60" stroke-linecap="round" stroke-linejoin="round" stroke-width="10" vectornator:layerName="곡선 1"/>
<path d="M40.7921 22.5577C40.76 22.5577 40.7279 22.5577 40.6958 22.5577" fill="none" opacity="1" stroke="#491e60" stroke-linecap="round" stroke-linejoin="round" stroke-width="10" vectornator:layerName="곡선 2"/>
<path d="M46.666 19.2356C46.6339 19.2195 46.6018 19.2035 46.5697 19.1874" fill="none" opacity="1" stroke="#491e60" stroke-linecap="round" stroke-linejoin="round" stroke-width="10" vectornator:layerName="곡선 3"/>
<path d="M52.7324 18.1764L52.6362 18.0801" fill="none" opacity="1" stroke="#491d60" stroke-linecap="round" stroke-linejoin="round" stroke-width="10" vectornator:layerName="곡선 4"/>
<path d="M57.836 20.4874C57.8039 20.4713 57.7718 20.4553 57.7397 20.4392" fill="none" opacity="1" stroke="#4e2066" stroke-linecap="round" stroke-linejoin="round" stroke-width="10" vectornator:layerName="곡선 5"/>
<path d="M62.121 26.5057C61.9669 26.5057 61.998 26.4879 62.1692 26.602" fill="none" opacity="1" stroke="#5e287a" stroke-linecap="round" stroke-linejoin="round" stroke-width="10" vectornator:layerName="곡선 6"/>
<path d="M62.9395 34.2091C62.9074 34.1931 62.8753 34.177 62.8432 34.161" fill="none" opacity="1" stroke="#672b85" stroke-linecap="round" stroke-linejoin="round" stroke-width="10" vectornator:layerName="곡선 7"/>
<path d="M59.6655 39.6978L59.5693 39.746" fill="none" opacity="1" stroke="#703091" stroke-linecap="round" stroke-linejoin="round" stroke-width="10" vectornator:layerName="곡선 8"/>
<path d="M53.6472 43.7421C53.6151 43.7582 53.583 43.7742 53.5509 43.7903" fill="none" opacity="1" stroke="#743296" stroke-linecap="round" stroke-linejoin="round" stroke-width="10" vectornator:layerName="곡선 9"/>
<path d="M39.1551 31.5129L39.0107 31.6092" fill="none" opacity="1" stroke="#491e61" stroke-linecap="round" stroke-linejoin="round" stroke-width="10" vectornator:layerName="곡선 10"/>
<path d="M42.5735 36.7609C42.5414 36.7609 42.5093 36.7609 42.4772 36.7609" fill="none" opacity="1" stroke="#622980" stroke-linecap="round" stroke-linejoin="round" stroke-width="10" vectornator:layerName="곡선 11"/>
<path d="M46.2808 42.394C46.1558 42.3315 46.2204 42.3459 46.0882 42.3459" fill="none" opacity="1" stroke="#6c2e8c" stroke-linecap="round" stroke-linejoin="round" stroke-width="10" vectornator:layerName="곡선 12"/>
<path d="M49.6511 48.3161C49.619 48.3321 49.5869 48.3482 49.5548 48.3642" fill="none" opacity="1" stroke="#843aab" stroke-linecap="round" stroke-linejoin="round" stroke-width="10" vectornator:layerName="곡선 13"/>
<path d="M54.0805 54.4307C54.0485 54.4467 54.0164 54.4628 53.9843 54.4788" fill="none" opacity="1" stroke="#903fb9" stroke-linecap="round" stroke-linejoin="round" stroke-width="10" vectornator:layerName="곡선 14"/>
<path d="M57.7397 60.8342C57.7076 60.8342 57.6755 60.8342 57.6434 60.8342" fill="none" opacity="1" stroke="#9b45c8" stroke-linecap="round" stroke-linejoin="round" stroke-width="10" vectornator:layerName="곡선 15"/>
<path d="M60.6766 65.9858C60.6766 66.0179 60.6766 66.05 60.6766 66.0821" fill="none" opacity="1" stroke="#9b45c8" stroke-linecap="round" stroke-linejoin="round" stroke-width="10" vectornator:layerName="곡선 16"/>
</g>
</svg>
