<?xml version="1.0" encoding="UTF-8" standalone="no"?>
<!DOCTYPE svg PUBLIC "-//W3C//DTD SVG 1.1//EN" "http://www.w3.org/Graphics/SVG/1.1/DTD/svg11.dtd">
<!-- Created with Vectornator (http://vectornator.io/) -->
<svg height="100%" stroke-miterlimit="10" style="fill-rule:nonzero;clip-rule:evenodd;stroke-linecap:round;stroke-linejoin:round;" version="1.1" viewBox="6.6763 7.88074 86.9932 62.59" width="100%" xml:space="preserve" xmlns="http://www.w3.org/2000/svg" xmlns:vectornator="http://vectornator.io" xmlns:xlink="http://www.w3.org/1999/xlink">
<defs>
<linearGradient gradientTransform="matrix(1 0 0 1 -133.512 -254.748)" gradientUnits="userSpaceOnUse" id="LinearGradient" x1="146.206" x2="189.769" y1="252.633" y2="318.28">
<stop offset="0.402083" stop-color="#491e60"/>
<stop offset="0.779167" stop-color="#9b45c8"/>
</linearGradient>
</defs>
<g id="레이어-1" vectornator:layerName="레이어 1">
<path d="M31.1314 47.319L43.1002 66.0231L36.1496 70.4708L6.6763 24.4117L14.5517 19.3723C18.4098 16.9034 21.4951 15.3076 23.8076 14.5847C26.1399 13.849 28.539 13.7434 31.0049 14.2678C35.3043 15.1606 38.7138 17.5758 41.2336 21.5135C43.9315 25.7296 44.6574 29.9742 43.4114 34.2473C42.1655 38.5205 39.146 42.1905 34.3532 45.2574L31.1314 47.319ZM27.0082 40.8755L29.6035 39.2148C35.9874 35.1298 37.6076 30.6312 34.4643 25.719C31.4228 20.9659 26.6107 20.6956 20.028 24.9078L17.731 26.3777L27.0082 40.8755Z" fill="url(#LinearGradient)" opacity="1" stroke="none" vectornator:layerName="텍스트 1"/>
<g fill="#55256e" opacity="1" stroke="none" vectornator:layerName="텍스트 2">
<path d="M46.1428 20.59L49.3899 20.59L49.3899 21.8831C50.5202 20.7624 51.7941 20.202 53.2118 20.202C54.8401 20.202 56.1093 20.7145 57.0192 21.7394C57.8047 22.611 58.1974 24.0335 58.1974 26.0066L58.1974 34.5842L54.9503 34.5842L54.9503 26.7681C54.9503 25.3888 54.7587 24.4357 54.3756 23.9089C54.002 23.3725 53.3219 23.1043 52.3353 23.1043C51.2625 23.1043 50.501 23.4587 50.0509 24.1675C49.6102 24.8668 49.3899 26.088 49.3899 27.8313L49.3899 34.5842L46.1428 34.5842L46.1428 20.59Z"/>
<path d="M71.5336 28.3486L61.505 28.3486C61.5912 29.498 61.9647 30.4127 62.6256 31.0928C63.2866 31.7633 64.1343 32.0986 65.1687 32.0986C65.9733 32.0986 66.639 31.907 67.1659 31.5238C67.6831 31.1407 68.2722 30.4319 68.9331 29.3974L71.663 30.9204C71.2415 31.6388 70.7961 32.2542 70.3268 32.7667C69.8574 33.2791 69.3545 33.7006 68.8181 34.031C68.2817 34.3615 67.7022 34.6033 67.0796 34.7566C66.457 34.9098 65.7818 34.9865 65.0538 34.9865C62.9657 34.9865 61.2894 34.316 60.0251 32.975C58.7607 31.6244 58.1285 29.8332 58.1285 27.6014C58.1285 25.3888 58.7416 23.5976 59.9676 22.2279C61.2032 20.8773 62.8412 20.202 64.8814 20.202C66.9408 20.202 68.5691 20.8582 69.7664 22.1704C70.9542 23.4731 71.548 25.2787 71.548 27.5871L71.5336 28.3486ZM68.2147 25.7049C67.7645 23.9808 66.6773 23.1187 64.9532 23.1187C64.5605 23.1187 64.1917 23.1786 63.8469 23.2983C63.5021 23.418 63.1884 23.5904 62.9058 23.8155C62.6232 24.0406 62.3814 24.3112 62.1802 24.6273C61.9791 24.9434 61.8258 25.3026 61.7205 25.7049L68.2147 25.7049Z"/>
<path d="M74.8125 20.59L74.8125 28.6216C74.8125 30.9396 75.7272 32.0986 77.5567 32.0986C79.3862 32.0986 80.301 30.9396 80.301 28.6216L80.301 20.59L83.5337 20.59L83.5337 28.6934C83.5337 29.8141 83.3948 30.7815 83.1171 31.5957C82.8489 32.3236 82.3843 32.9798 81.7234 33.5641C80.6314 34.5123 79.2426 34.9865 77.5567 34.9865C75.8805 34.9865 74.4964 34.5123 73.4045 33.5641C72.734 32.9798 72.2598 32.3236 71.982 31.5957C71.7138 30.9443 71.5797 29.9769 71.5797 28.6934L71.5797 20.59L74.8125 20.59Z"/>
<path d="M92.2579 22.975L89.5855 24.3974C89.1641 23.5354 88.6421 23.1043 88.0195 23.1043C87.7225 23.1043 87.4687 23.2025 87.258 23.3989C87.0472 23.5952 86.9419 23.8467 86.9419 24.1532C86.9419 24.6896 87.5645 25.2212 88.8097 25.748C90.5242 26.4855 91.6784 27.1656 92.2723 27.7882C92.8662 28.4108 93.1631 29.2489 93.1631 30.3026C93.1631 31.6532 92.665 32.7834 91.6689 33.6934C90.7014 34.5554 89.5329 34.9865 88.1631 34.9865C85.8164 34.9865 84.1545 33.8418 83.1775 31.5526L85.9361 30.2738C86.3193 30.9443 86.6114 31.3706 86.8126 31.5526C87.2053 31.9166 87.6746 32.0986 88.2206 32.0986C89.3126 32.0986 89.8585 31.6005 89.8585 30.6043C89.8585 30.0296 89.4371 29.4932 88.5942 28.9951C88.2685 28.8323 87.9428 28.6742 87.6172 28.521C87.2915 28.3677 86.961 28.2097 86.6258 28.0468C85.6871 27.5871 85.0262 27.1273 84.643 26.6675C84.1545 26.0833 83.9103 25.3313 83.9103 24.4118C83.9103 23.1953 84.3269 22.1896 85.1603 21.3946C86.0128 20.5996 87.0472 20.202 88.2637 20.202C90.0549 20.202 91.3863 21.1264 92.2579 22.975Z"/>
</g>
<g fill="#9b45c8" opacity="1" stroke="none" vectornator:layerName="텍스트 3">
<path d="M57.6463 39.6716L61.3386 39.6716L61.3386 55.5842L57.6463 55.5842L57.6463 53.9178C56.1324 55.3337 54.5041 56.0416 52.7615 56.0416C50.5614 56.0416 48.7425 55.2465 47.3048 53.6564C45.878 52.0335 45.1646 50.0077 45.1646 47.5789C45.1646 45.1936 45.878 43.2059 47.3048 41.6157C48.7316 40.0256 50.5178 39.2305 52.6635 39.2305C54.515 39.2305 56.176 39.9929 57.6463 41.5177L57.6463 39.6716ZM48.9222 47.5789C48.9222 49.1037 49.3306 50.3453 50.1475 51.3038C50.9862 52.2731 52.0426 52.7578 53.317 52.7578C54.6784 52.7578 55.7784 52.2895 56.6171 51.3528C57.4557 50.3835 57.8751 49.1527 57.8751 47.6606C57.8751 46.1684 57.4557 44.9377 56.6171 43.9683C55.7784 43.0208 54.6893 42.547 53.3496 42.547C52.0862 42.547 51.0297 43.0262 50.1802 43.9847C49.3415 44.954 48.9222 46.1521 48.9222 47.5789Z"/>
<path d="M77.8798 55.2084C77.8798 55.9599 77.8553 56.6216 77.8063 57.1934C77.7573 57.7652 77.6892 58.2689 77.6021 58.7046C77.3407 59.9027 76.8288 60.9319 76.0663 61.7924C74.6287 63.4479 72.6518 64.2756 70.1359 64.2756C68.012 64.2756 66.2639 63.7038 64.8916 62.5602C63.4757 61.3839 62.6588 59.7556 62.441 57.6754L66.1332 57.6754C66.2748 58.4595 66.509 59.064 66.8358 59.4888C67.5982 60.4799 68.7091 60.9755 70.1686 60.9755C72.8588 60.9755 74.2039 59.3254 74.2039 56.0253L74.2039 53.8034C72.7444 55.2955 71.0617 56.0416 69.1557 56.0416C66.9882 56.0416 65.2129 55.2574 63.8297 53.689C62.4356 52.0989 61.7385 50.1112 61.7385 47.7259C61.7385 45.406 62.3865 43.4346 63.6826 41.8118C65.0768 40.0909 66.9174 39.2305 69.2047 39.2305C71.2087 39.2305 72.8751 39.9766 74.2039 41.4687L74.2039 39.6716L77.8798 39.6716L77.8798 55.2084ZM74.3509 47.6606C74.3509 46.114 73.937 44.8778 73.1093 43.952C72.2706 43.0044 71.1978 42.5306 69.8908 42.5306C68.4967 42.5306 67.3967 43.048 66.5907 44.0827C65.861 45.0085 65.4961 46.2065 65.4961 47.6769C65.4961 49.1255 65.861 50.3127 66.5907 51.2384C67.3858 52.2514 68.4858 52.7578 69.8908 52.7578C71.2958 52.7578 72.4068 52.2459 73.2237 51.2221C73.9752 50.2963 74.3509 49.1091 74.3509 47.6606Z"/>
<path d="M93.5224 48.4938L82.119 48.4938C82.217 49.8008 82.6418 50.8409 83.3933 51.6142C84.1448 52.3766 85.1087 52.7578 86.285 52.7578C87.1999 52.7578 87.9569 52.54 88.5559 52.1043C89.144 51.6687 89.8139 50.8627 90.5654 49.6864L93.6695 51.4182C93.1903 52.235 92.6838 52.9348 92.1501 53.5175C91.6164 54.1002 91.0446 54.5794 90.4347 54.9552C89.8248 55.3309 89.1658 55.606 88.4579 55.7802C87.7499 55.9545 86.9821 56.0416 86.1543 56.0416C83.7799 56.0416 81.8739 55.2792 80.4362 53.7544C78.9986 52.2187 78.2797 50.182 78.2797 47.6442C78.2797 45.1283 78.9768 43.0916 80.3709 41.5341C81.7759 39.9984 83.6384 39.2305 85.9583 39.2305C88.2999 39.2305 90.1515 39.9766 91.513 41.4687C92.8635 42.95 93.5388 45.003 93.5388 47.6279L93.5224 48.4938ZM89.7485 45.4877C89.2366 43.5272 88.0004 42.547 86.0399 42.547C85.5934 42.547 85.1741 42.615 84.782 42.7512C84.3899 42.8873 84.0332 43.0834 83.7119 43.3393C83.3906 43.5953 83.1156 43.903 82.8868 44.2624C82.6581 44.6218 82.4838 45.0303 82.364 45.4877L89.7485 45.4877Z"/>
</g>
</g>
</svg>
